<?xml version="1.0" encoding="utf-8"?>
<!-- Generator: Adobe Illustrator 21.1.0, SVG Export Plug-In . SVG Version: 6.00 Build 0)  -->
<svg version="1.1" xmlns="http://www.w3.org/2000/svg" xmlns:xlink="http://www.w3.org/1999/xlink" x="0px" y="0px"
	 viewBox="0 0 24 24" style="enable-background:new 0 0 24 24;" xml:space="preserve">
<style type="text/css">
	.st0{fill:#74FF6E;}
	.st1{fill:none;}
	.st2{fill:#FFFFFF;}
</style>
<g id="Layer_2">
	<circle class="st0" cx="12" cy="12" r="12"/>
</g>
<g id="Layer_1">
	<path class="st1" d="M0,0h24v24H0V0z"/>
	<path class="st2" d="M7,10.4c1.1,2.9,3,5.3,5.6,7l2.2-2c0.3-0.2,0.7-0.3,1-0.1c1,0.5,2.1,0.7,3.3,0.9c0.5,0,0.9,0.5,0.8,1.1
		l-0.3,3.4c0,0.5-0.5,0.9-1,0.9c-8.7-0.8-15.1-8.8-14.3-18c0-0.5,0.5-0.9,1-0.9l3.3,0.3c0.5,0,0.9,0.5,0.8,1.1
		c-0.1,1.2,0,2.4,0.2,3.5c0.1,0.3,0,0.7-0.3,1L7,10.4z"/>
</g>
</svg>
